{
	"asset":{
		"generator":"Khronos glTF Blender I/O v5.1.18",
		"version":"2.0"
	},
	"extensionsUsed":[
		"KHR_lights_punctual"
	],
	"extensionsRequired":[
		"KHR_lights_punctual"
	],
	"extensions":{
		"KHR_lights_punctual":{
			"lights":[
				{
					"color":[
						1,
						1,
						1
					],
					"intensity":543.5141306588226,
					"type":"point",
					"name":"Point"
				},
				{
					"color":[
						1,
						1,
						1
					],
					"intensity":1000,
					"spot":{
						"innerConeAngle":0.8812166867451339,
						"outerConeAngle":1.0367255210876465
					},
					"type":"spot",
					"name":"Point.001"
				}
			]
		}
	},
	"scene":0,
	"scenes":[
		{
			"name":"Scene",
			"nodes":[
				0,
				1,
				2,
				3,
				4
			]
		}
	],
	"nodes":[
		{
			"mesh":0,
			"name":"Surface",
			"translation":[
				-1,
				1,
				-3
			]
		},
		{
			"extensions":{
				"KHR_lights_punctual":{
					"light":0
				}
			},
			"name":"Point",
			"rotation":[
				-0.7071068286895752,
				0,
				0,
				0.7071068286895752
			],
			"translation":[
				1.5,
				1.1168569326400757,
				-1.5
			]
		},
		{
			"extensions":{
				"KHR_lights_punctual":{
					"light":1
				}
			},
			"name":"Spot",
			"rotation":[
				-0.8301921486854553,
				0.14593154191970825,
				-0.14817659556865692,
				0.5172317624092102
			],
			"translation":[
				-0.5,
				1.7,
				-3.5
			]
		},
		{
			"name":"Area",
			"rotation":[
				-0.7899550199508667,
				0.10460536926984787,
				-0.11031648516654968,
				0.5940194725990295
			],
			"translation":[
				3.5,
				1.2553273439407349,
				0.5
			]
		},
		{
			"camera":0,
			"name":"Camera",
			"rotation":[
				-0.3350085914134979,
				-0.34869468212127686,
				-0.135079026222229,
				0.8648322820663452
			],
			"translation":[
				-3,
				6,
				3
			]
		}
	],
	"cameras":[
		{
			"name":"Camera.001",
			"orthographic":{
				"xmag":5,
				"ymag":2.8125,
				"zfar":1000,
				"znear":0.10000000149011612
			},
			"type":"orthographic"
		}
	],
	"materials":[
		{
			"doubleSided":true,
			"name":"GlossyFloor",
			"pbrMetallicRoughness":{
				"baseColorFactor":[
					0.800000011920929,
					0.800000011920929,
					0.800000011920929,
					1
				],
				"metallicFactor":0.699999988079071,
				"roughnessFactor":0.10000000149011612
			}
		},
		{
			"doubleSided":true,
			"name":"BrickWalls",
			"normalTexture":{
				"index":0
			},
			"pbrMetallicRoughness":{
				"baseColorTexture":{
					"index":1
				},
				"metallicRoughnessTexture":{
					"index":2
				}
			}
		}
	],
	"meshes":[
		{
			"name":"Cube.003",
			"primitives":[
				{
					"attributes":{
						"POSITION":0,
						"NORMAL":1,
						"TEXCOORD_0":2
					},
					"indices":3,
					"material":0
				},
				{
					"attributes":{
						"POSITION":4,
						"NORMAL":5,
						"TEXCOORD_0":6
					},
					"indices":7,
					"material":1
				}
			]
		}
	],
	"textures":[
		{
			"sampler":0,
			"source":0
		},
		{
			"sampler":0,
			"source":1
		},
		{
			"sampler":0,
			"source":2
		}
	],
	"images":[
		{
			"mimeType":"image/png",
			"name":"red_brick_nor_gl_1k.png",
			"uri":"../textures/red_brick_nor_gl_1k.png"
		},
		{
			"mimeType":"image/jpeg",
			"name":"red_brick_diff_1k.jpg",
			"uri":"../textures/red_brick_diff_1k.jpg"
		},
		{
			"mimeType":"image/jpeg",
			"name":"red_brick_arm_1k.jpg",
			"uri":"../textures/red_brick_arm_1k.jpg"
		}
	],
	"accessors":[
		{
			"bufferView":0,
			"componentType":5126,
			"count":12,
			"max":[
				5,
				-1,
				5
			],
			"min":[
				-1,
				-1,
				-1
			],
			"type":"VEC3"
		},
		{
			"bufferView":1,
			"componentType":5126,
			"count":12,
			"type":"VEC3"
		},
		{
			"bufferView":2,
			"componentType":5126,
			"count":12,
			"type":"VEC2"
		},
		{
			"bufferView":3,
			"componentType":5123,
			"count":18,
			"type":"SCALAR"
		},
		{
			"bufferView":4,
			"componentType":5126,
			"count":24,
			"max":[
				5,
				1,
				5
			],
			"min":[
				-1,
				-1,
				-1
			],
			"type":"VEC3"
		},
		{
			"bufferView":5,
			"componentType":5126,
			"count":24,
			"type":"VEC3"
		},
		{
			"bufferView":6,
			"componentType":5126,
			"count":24,
			"type":"VEC2"
		},
		{
			"bufferView":7,
			"componentType":5123,
			"count":36,
			"type":"SCALAR"
		}
	],
	"bufferViews":[
		{
			"buffer":0,
			"byteLength":144,
			"byteOffset":0,
			"target":34962
		},
		{
			"buffer":0,
			"byteLength":144,
			"byteOffset":144,
			"target":34962
		},
		{
			"buffer":0,
			"byteLength":96,
			"byteOffset":288,
			"target":34962
		},
		{
			"buffer":0,
			"byteLength":36,
			"byteOffset":384,
			"target":34963
		},
		{
			"buffer":0,
			"byteLength":288,
			"byteOffset":420,
			"target":34962
		},
		{
			"buffer":0,
			"byteLength":288,
			"byteOffset":708,
			"target":34962
		},
		{
			"buffer":0,
			"byteLength":192,
			"byteOffset":996,
			"target":34962
		},
		{
			"buffer":0,
			"byteLength":72,
			"byteOffset":1188,
			"target":34963
		}
	],
	"samplers":[
		{
			"magFilter":9729,
			"minFilter":9987
		}
	],
	"buffers":[
		{
			"byteLength":1260,
			"uri":"light_type_test.bin"
		}
	]
}
