{"asset": {"generator": "Khronos glTF Blender I/O v5.0.21", "version": "2.0"}, "extensionsUsed": ["KHR_materials_transmission", "KHR_materials_emissive_strength", "KHR_lights_punctual"], "extensionsRequired": ["KHR_lights_punctual"], "extensions": {"KHR_lights_punctual": {"lights": [{"color": [0.7230553030967712, 0.7912982106208801, 1], "intensity": 271.7570653294113, "type": "point", "name": "Point.003"}, {"color": [0.7230553030967712, 0.7912982106208801, 1], "intensity": 271.7570653294113, "type": "point", "name": "Point.004"}, {"color": [0.7230553030967712, 0.7912982106208801, 1], "intensity": 271.7570653294113, "type": "point", "name": "Point.005"}]}, "EXT_sky": {"sky_texture": 1}}, "scene": 0, "scenes": [{"name": "Scene", "nodes": [0, 1, 2, 3, 4, 5, 6, 7, 8, 9]}], "nodes": [{"mesh": 0, "name": "Plane"}, {"mesh": 1, "name": "Sphere", "scale": [0.10000002384185791, 0.10000002384185791, 0.10000002384185791], "translation": [0, 0.10000000149011612, 0]}, {"mesh": 2, "name": "Sphere.001", "scale": [0.10000002384185791, 0.10000002384185791, 0.10000002384185791], "translation": [0.25, 0.10000000149011612, 0]}, {"mesh": 3, "name": "Sphere.002", "scale": [0.10000002384185791, 0.10000002384185791, 0.10000002384185791], "translation": [0.5, 0.10000000149011612, 0]}, {"mesh": 4, "name": "Sphere.003", "scale": [0.10000002384185791, 0.10000002384185791, 0.10000002384185791], "translation": [-0.25, 0.10000000149011612, 0]}, {"mesh": 5, "name": "Sphere.004", "scale": [0.10000002384185791, 0.10000002384185791, 0.10000002384185791], "translation": [-0.5, 0.10000000149011612, 0]}, {"extensions": {"KHR_lights_punctual": {"light": 0}}, "name": "Point.001", "rotation": [-0.7071068286895752, 0, 0, 0.7071068286895752], "translation": [0.6802376508712769, 0.6300160884857178, 0.861865758895874]}, {"extensions": {"KHR_lights_punctual": {"light": 1}}, "name": "Point.002", "rotation": [-0.7071068286895752, 0, 0, 0.7071068286895752], "translation": [-0.5650290250778198, 0.6300160884857178, 0.8550733327865601]}, {"camera": 0, "name": "Camera", "rotation": [-0.00044964507105760276, 0.9916651844978333, 0.12879449129104614, 0.003461073385551572], "translation": [0.0008468190208077431, 0.3589022755622864, -1.0824822187423706]}, {"extensions": {"KHR_lights_punctual": {"light": 2}}, "name": "Point.003", "rotation": [-0.7071068286895752, 0, 0, 0.7071068286895752], "translation": [0.018350541591644287, 0.6300160884857178, -1.4051059484481812]}], "cameras": [{"name": "Camera.001", "perspective": {"aspectRatio": 1, "yfov": 1.0808390378952026, "zfar": 1000, "znear": 0.10000000149011612}, "type": "perspective"}], "materials": [{"doubleSided": true, "name": "BaseMaterial", "pbrMetallicRoughness": {"baseColorTexture": {"index": 0}, "metallicFactor": 0, "roughnessFactor": 0.5}}, {"doubleSided": true, "emissiveFactor": [1, 0.6172068119049072, 0.3813261389732361], "extensions": {"KHR_materials_emissive_strength": {"emissiveStrength": 2}}, "name": "SphereGlowing", "pbrMetallicRoughness": {"baseColorFactor": [0.800000011920929, 0.800000011920929, 0.800000011920929, 1], "metallicFactor": 0, "roughnessFactor": 0.5}}, {"doubleSided": true, "extensions": {"KHR_materials_transmission": {"transmissionFactor": 1}}, "name": "SphereGlass", "pbrMetallicRoughness": {"baseColorFactor": [0.800000011920929, 0.800000011920929, 0.800000011920929, 1], "metallicFactor": 0, "roughnessFactor": 0.20000000298023224}}, {"doubleSided": true, "name": "SphereDiffuse", "pbrMetallicRoughness": {"baseColorFactor": [0.800000011920929, 0.800000011920929, 0.800000011920929, 1], "metallicFactor": 0, "roughnessFactor": 0.5}}, {"doubleSided": true, "name": "SphereMetallic", "pbrMetallicRoughness": {"baseColorFactor": [0.800000011920929, 0.800000011920929, 0.800000011920929, 1], "roughnessFactor": 0}}, {"doubleSided": true, "name": "SphereMatte", "pbrMetallicRoughness": {"baseColorFactor": [0.800000011920929, 0.800000011920929, 0.800000011920929, 1], "roughnessFactor": 0.5}}], "meshes": [{"name": "Plane", "primitives": [{"attributes": {"POSITION": 0, "NORMAL": 1, "TEXCOORD_0": 2}, "indices": 3, "material": 0}]}, {"name": "Sphere", "primitives": [{"attributes": {"POSITION": 4, "NORMAL": 5, "TEXCOORD_0": 6}, "indices": 7, "material": 1}]}, {"name": "Sphere.001", "primitives": [{"attributes": {"POSITION": 8, "NORMAL": 9, "TEXCOORD_0": 10}, "indices": 7, "material": 2}]}, {"name": "Sphere.002", "primitives": [{"attributes": {"POSITION": 11, "NORMAL": 12, "TEXCOORD_0": 13}, "indices": 7, "material": 3}]}, {"name": "Sphere.003", "primitives": [{"attributes": {"POSITION": 14, "NORMAL": 15, "TEXCOORD_0": 16}, "indices": 7, "material": 4}]}, {"name": "Sphere.004", "primitives": [{"attributes": {"POSITION": 17, "NORMAL": 18, "TEXCOORD_0": 19}, "indices": 7, "material": 5}]}], "textures": [{"sampler": 0, "source": 0}, {"sampler": 1, "source": 1}], "images": [{"mimeType": "image/png", "name": "checkerboard", "uri": "checkerboard.png"}, {"uri": "./skybox.png"}], "accessors": [{"bufferView": 0, "componentType": 5126, "count": 4, "max": [1, 0, 1], "min": [-1, 0, -1], "type": "VEC3"}, {"bufferView": 1, "componentType": 5126, "count": 4, "type": "VEC3"}, {"bufferView": 2, "componentType": 5126, "count": 4, "type": "VEC2"}, {"bufferView": 3, "componentType": 5123, "count": 6, "type": "SCALAR"}, {"bufferView": 4, "componentType": 5126, "count": 559, "max": [0.9999997019767761, 1, 0.9999993443489075], "min": [-0.9999990463256836, -1, -1], "type": "VEC3"}, {"bufferView": 5, "componentType": 5126, "count": 559, "type": "VEC3"}, {"bufferView": 6, "componentType": 5126, "count": 559, "type": "VEC2"}, {"bufferView": 7, "componentType": 5123, "count": 2880, "type": "SCALAR"}, {"bufferView": 8, "componentType": 5126, "count": 559, "max": [0.9999997019767761, 1, 0.9999993443489075], "min": [-0.9999990463256836, -1, -1], "type": "VEC3"}, {"bufferView": 9, "componentType": 5126, "count": 559, "type": "VEC3"}, {"bufferView": 10, "componentType": 5126, "count": 559, "type": "VEC2"}, {"bufferView": 11, "componentType": 5126, "count": 559, "max": [0.9999997019767761, 1, 0.9999993443489075], "min": [-0.9999990463256836, -1, -1], "type": "VEC3"}, {"bufferView": 12, "componentType": 5126, "count": 559, "type": "VEC3"}, {"bufferView": 13, "componentType": 5126, "count": 559, "type": "VEC2"}, {"bufferView": 14, "componentType": 5126, "count": 559, "max": [0.9999997019767761, 1, 0.9999993443489075], "min": [-0.9999990463256836, -1, -1], "type": "VEC3"}, {"bufferView": 15, "componentType": 5126, "count": 559, "type": "VEC3"}, {"bufferView": 16, "componentType": 5126, "count": 559, "type": "VEC2"}, {"bufferView": 17, "componentType": 5126, "count": 559, "max": [0.9999997019767761, 1, 0.9999993443489075], "min": [-0.9999990463256836, -1, -1], "type": "VEC3"}, {"bufferView": 18, "componentType": 5126, "count": 559, "type": "VEC3"}, {"bufferView": 19, "componentType": 5126, "count": 559, "type": "VEC2"}], "bufferViews": [{"buffer": 0, "byteLength": 48, "byteOffset": 0, "target": 34962}, {"buffer": 0, "byteLength": 48, "byteOffset": 48, "target": 34962}, {"buffer": 0, "byteLength": 32, "byteOffset": 96, "target": 34962}, {"buffer": 0, "byteLength": 12, "byteOffset": 128, "target": 34963}, {"buffer": 0, "byteLength": 6708, "byteOffset": 140, "target": 34962}, {"buffer": 0, "byteLength": 6708, "byteOffset": 6848, "target": 34962}, {"buffer": 0, "byteLength": 4472, "byteOffset": 13556, "target": 34962}, {"buffer": 0, "byteLength": 5760, "byteOffset": 18028, "target": 34963}, {"buffer": 0, "byteLength": 6708, "byteOffset": 23788, "target": 34962}, {"buffer": 0, "byteLength": 6708, "byteOffset": 30496, "target": 34962}, {"buffer": 0, "byteLength": 4472, "byteOffset": 37204, "target": 34962}, {"buffer": 0, "byteLength": 6708, "byteOffset": 41676, "target": 34962}, {"buffer": 0, "byteLength": 6708, "byteOffset": 48384, "target": 34962}, {"buffer": 0, "byteLength": 4472, "byteOffset": 55092, "target": 34962}, {"buffer": 0, "byteLength": 6708, "byteOffset": 59564, "target": 34962}, {"buffer": 0, "byteLength": 6708, "byteOffset": 66272, "target": 34962}, {"buffer": 0, "byteLength": 4472, "byteOffset": 72980, "target": 34962}, {"buffer": 0, "byteLength": 6708, "byteOffset": 77452, "target": 34962}, {"buffer": 0, "byteLength": 6708, "byteOffset": 84160, "target": 34962}, {"buffer": 0, "byteLength": 4472, "byteOffset": 90868, "target": 34962}], "samplers": [{"magFilter": 9728, "minFilter": 9984}, {"magFilter": 9729, "minFilter": 9729, "wrapS": 10497, "wrapT": 10497}], "buffers": [{"byteLength": 95340, "uri": "material_spheres_raw.bin"}]}